<?xml version="1.0" encoding="UTF-8"?>
<svg id="Layer_1" data-name="Layer 1" xmlns="http://www.w3.org/2000/svg" version="1.1" xmlns:xlink="http://www.w3.org/1999/xlink" viewBox="0 0 109 57">
  <defs>
    <style>
      .cls-1 {
        fill: url(#linear-gradient);
      }

      .cls-1, .cls-2, .cls-3 {
        stroke-width: 0px;
      }

      .cls-2 {
        display: none;
      }

      .cls-2, .cls-3 {
        fill: #fff;
      }
    </style>
    <linearGradient id="linear-gradient" x1="100.5" y1="56.1" x2="84" y2="4.7" gradientTransform="translate(0 58) scale(1 -1)" gradientUnits="userSpaceOnUse">
      <stop offset="0" stop-color="#df8908"/>
      <stop offset="1" stop-color="#b415ff"/>
    </linearGradient>
  </defs>
  <path class="cls-1" d="M68,42.4c0-1,.9-1.9,1.9-1.7l31.3,3.5c4,.4,7.3-2.9,6.9-6.9-.4-4.1-4.7-6.7-8.6-5.1l-29.2,11.9c-1.2.5-2.4-.4-2.4-1.6Z"/>
  <path class="cls-2" d="M.9,45L13.6,13.4h5l12.7,31.6h-6.5l-9.8-26h2.3l-9.9,26H.9ZM7.7,39.1v-5.1h17v5.1H7.7ZM34.8,45V12.5h5.9v32.5h-5.9ZM56.3,45.5c-2.3,0-4.3-.5-6.1-1.4-1.8-1-3.2-2.3-4.2-4-1-1.7-1.5-3.7-1.5-5.8s.5-4.1,1.5-5.8c1-1.7,2.4-3.1,4.1-4.1,1.7-1,3.7-1.5,5.8-1.5s3.9.5,5.5,1.4c1.6.9,2.9,2.2,3.8,3.9.9,1.6,1.4,3.5,1.4,5.5s0,.8,0,1.2c0,.4-.1.8-.2,1.3h-18.3s0-4.4,0-4.4h15.5s-2.4,1.8-2.4,1.8c0-1.3-.3-2.4-.7-3.2-.4-.9-1-1.5-1.8-2-.8-.5-1.7-.7-2.8-.7s-2.2.3-3.1.8c-.9.5-1.5,1.2-2,2.2-.5.9-.7,2-.7,3.3s.2,2.5.7,3.5c.5,1,1.2,1.7,2.2,2.2.9.5,2,.8,3.2.8s2.1-.2,3-.5c.9-.4,1.7-1,2.3-1.7l3.5,3.5c-1.1,1.2-2.3,2.2-3.9,2.8-1.5.6-3.1.9-4.9.9ZM91.4,45l-9.1-14.1h-.9l-12.3-17.6h7.2l9,13.3h.9l12.3,18.4h-7.2ZM68.5,45l11.8-16.9,4.5,3-9.4,13.9h-6.9ZM86.6,30l-4.5-3,9-13.6h6.9l-11.4,16.6Z"/>
  <g>
    <path class="cls-3" d="M33.6,46.1c-.7.3-1.2.7-1.9.9-3.7,1.2-7.5-1.1-8.3-4.9-.5-2.3-.2-4.4,1.1-6.4,2-3,6.3-3.6,8.8-1.6,0,0,.2,0,.2.1q.2-1,1.3-1c.9,0,1.7,0,2.6,0,.4,0,.5.1.5.5,0,4.3,0,8.6,0,12.9,0,.4-.1.5-.5.5-1,0-2.1,0-3.1,0-.5,0-.8,0-.7-.7,0,0,0-.1,0-.3ZM30.7,43.4c1.9,0,3.1-1.3,3.2-3.2,0-2-1.2-3.3-3-3.3-1.9,0-3.2,1.3-3.2,3.3,0,1.9,1.3,3.3,3.1,3.3Z"/>
    <path class="cls-3" d="M14.4,30.7c-1.3,0-2.4,0-3.5,0-.8,0-1.5,0-2.3,0-.2,0-.4-.2-.4-.3,0-1.1,0-2.1,0-3.2,0-.1.2-.3.3-.3.1,0,.3,0,.5,0,5.2,0,10.3,0,15.5,0q.8,0,.8.8c0,.9,0,1.7,0,2.6,0,.4-.1.6-.6.6-1.7,0-3.3,0-5,0-.8,0-.8,0-.8.8,0,4.9,0,9.8,0,14.6,0,.8,0,.8-.8.8-1.2,0-2.4,0-3.6,0v-16.3Z"/>
    <path class="cls-3" d="M77.2,41.5c.3,2.3,3.9,3.6,6.6,1.2.8.8,1.5,1.5,2.3,2.3-.7.9-1.7,1.5-2.9,1.9-3.1.9-5.9.5-8.3-1.7-1.7-1.5-2.2-3.5-2.1-5.8.2-3.1,2.5-5.9,5.8-6.5,3.6-.7,7,.8,8.2,4.4.4,1.2.4,2.5.2,3.7,0,.4-.3.4-.6.4-1.4,0-2.8,0-4.3,0-1.5,0-3,0-4.5,0-.2,0-.4,0-.6,0ZM83.1,38.5c0-1.2-1-2.2-2.4-2.3-1.7-.2-3.3.8-3.5,2.3h5.9Z"/>
    <path class="cls-3" d="M61.8,34.1c.4-.3.8-.5,1.2-.7,2.6-1.1,5.7-.6,7.2,2.2.4.7.6,1.7.7,2.5,0,2.8,0,5.6,0,8.4,0,.1,0,.3,0,.5h-4.3c0-.2,0-.4,0-.6,0-2.4,0-4.7,0-7.1,0-1.9-1.4-3-3.3-2.4-1,.3-1.6,1.2-1.6,2.3,0,2.4,0,4.7,0,7.1,0,.2,0,.3,0,.5,0,.1-.2.3-.4.4-1.3,0-2.6,0-3.9,0,0-.2,0-.3,0-.5,0-4.3,0-8.6,0-12.9,0-.5.1-.6.6-.6,1,0,2,0,3,0,.5,0,.8.1.7.7,0,0,0,.1,0,.3Z"/>
    <path class="cls-3" d="M41.1,47v-5.9c0-2.4,0-4.9,0-7.3,0-.5.2-.7.7-.7,1,0,2,0,2.9,0,.5,0,.8,0,.7.7,0,0,0,.1,0,.3.2-.2.4-.3.6-.4,2.4-1.4,6-1.2,7.7,1.7.5.8.7,1.7.7,2.6,0,2.8,0,5.6,0,8.4,0,.5-.1.6-.6.6-1.2,0-2.4,0-3.7,0,0-.3,0-.5,0-.7,0-2.4,0-4.7,0-7.1,0-1.9-1.5-3-3.3-2.4-.9.3-1.4.9-1.5,1.8,0,.7,0,1.3,0,2,0,2,0,3.9,0,5.9,0,.4,0,.6-.6.6-1.2,0-2.4,0-3.8,0Z"/>
    <path class="cls-3" d="M89.4,47v-3.3c0-3.3,0-6.6,0-9.9,0-.6.2-.7.7-.7.9,0,1.7,0,2.6,0q.9,0,1.1.9c2.2-1.4,4.3-1.7,6.6,0-.9,1.1-1.7,2.2-2.6,3.3-.7-.5-1.4-.7-2.2-.5-1,.2-1.7.9-1.8,1.9,0,1.4,0,2.8,0,4.1,0,1.2,0,2.5,0,3.7,0,.4-.1.5-.5.5-1.2,0-2.4,0-3.8,0Z"/>
  </g>
  <g>
    <path class="cls-3" d="M73.6,28.5c-.7,0-1.4,0-2.1,0-.2,0-.4-.3-.5-.5-.6-1.5-1.2-3-1.8-4.5-.1-.4-.3-.5-.7-.5-2.9,0-5.8,0-8.6,0-.4,0-.6.1-.7.5-.6,1.4-1.2,2.9-1.7,4.3-.2.5-.4.8-1,.7-.5,0-1,0-1.6,0,.3-.7.5-1.3.7-1.9,2.6-6.2,5.1-12.5,7.6-18.7.2-.5.5-.6.9-.6.5,0,.9-.2,1.2.5,2.7,6.7,5.4,13.4,8.1,20.1,0,.1,0,.3.2.5ZM64.3,11.2c0,0-.1,0-.2,0-1.3,3.2-2.6,6.5-3.9,9.8h8.1c-1.3-3.3-2.6-6.5-3.9-9.8Z"/>
    <path class="cls-3" d="M77,28.5v-14.4c.6,0,1.2,0,1.8,0,.1,0,.3.3.3.4,0,.5,0,.9,0,1.5.2-.2.3-.2.4-.3,2.1-2.3,5.6-2.6,8-.7,1.5,1.2,2.2,2.8,2.2,4.7,0,2.9,0,5.7,0,8.6,0,0,0,.1,0,.2h-2c0-.3,0-.5,0-.7,0-2.7,0-5.4,0-8.1,0-2.1-1.6-3.6-3.5-3.8-2.8-.3-4.4,1.4-4.8,3.2-.1.4,0,.9,0,1.4,0,2.5,0,5,0,7.5,0,.5-.2.7-.7.7-.4,0-.9,0-1.4,0Z"/>
  </g>
</svg>