<svg xmlns="http://www.w3.org/2000/svg" viewBox="0 0 96 96" id="Head"><switch><g fill="#ffffff" class="color000000 svgShape"><path d="M64.671 53.256C69.188 48.893 72 42.775 72 36V24C72 10.745 61.255 0 48 0S24 10.745 24 24v12c0 6.773 2.812 12.889 7.326 17.253C13.037 56.102 0 63.488 0 72.094V80c0 6.63 5.37 12 12 12h72c6.63 0 12-5.37 12-12v-7.875c0-8.605-13.038-16.014-31.329-18.869zM32 36V24c0-8.836 7.164-16 16-16 8.837 0 16 7.164 16 16v12c0 8.836-7.163 16-16 16-8.836 0-16-7.164-16-16zm56 44c0 2.206-1.794 4-4 4H12c-2.206 0-4-1.794-4-4v-7.906c0-.932 2.305-3.941 9.152-6.812C25.156 61.925 36.4 60 48 60c11.594 0 22.835 1.93 30.842 5.294C85.693 68.174 88 71.189 88 72.125V80z" fill="#ffffff" class="color000000 svgShape"></path></g></switch></svg>